<svg width="75" height="75" viewBox="0 0 75 75" fill="none" xmlns="http://www.w3.org/2000/svg">
<defs><style>.a{fill:#000000;}@media(prefers-color-scheme:dark){.a{fill:#ffffff;}}</style></defs>
<path class="a" d="M25.0356 37.7137C25.0356 44.6172 19.4312 50.2137 12.5178 50.2137C5.60442 50.2137 0 44.6172 0 37.7137C0 30.8101 5.60442 25.2137 12.5178 25.2137C19.4312 25.2137 25.0356 30.8101 25.0356 37.7137Z"/>
<path class="a" d="M37.4465 75C58.1867 75 75 58.2107 75 37.5C75 16.7893 58.1867 0 37.4465 0C37.4465 0 37.4465 10.4351 37.4465 25C44.3599 25 49.9643 30.5964 49.9643 37.5C49.9643 44.4036 44.3599 50 37.4465 50C37.4465 64.5649 37.4465 75 37.4465 75Z"/>
</svg>
